<svg xmlns="http://www.w3.org/2000/svg" xmlns:svg="http://www.w3.org/2000/svg" xmlns:xlink="http://www.w3.org/1999/xlink" id="svg7816" width="48" height="48" version="1.1" viewBox="0 0 48 48"><metadata id="metadata7822"/><defs id="defs7820"><linearGradient id="linearGradient8417"><stop style="stop-color:#ff9c08;stop-opacity:1" id="stop8413" offset="0"/><stop style="stop-color:#ffbe2c;stop-opacity:1" id="stop8415" offset="1"/></linearGradient><linearGradient id="linearGradient8377"><stop style="stop-color:#ffdd96;stop-opacity:1" id="stop8373" offset="0"/><stop style="stop-color:#ffd54d;stop-opacity:1" id="stop8375" offset="1"/></linearGradient><radialGradient id="radialGradient8379" cx="19.901" cy="19.901" r="20" fx="19.901" fy="19.901" gradientUnits="userSpaceOnUse" xlink:href="#linearGradient8377"/><linearGradient id="linearGradient8419" x1="24.206" x2="22.353" y1="25.711" y2="42.538" gradientUnits="userSpaceOnUse" xlink:href="#linearGradient8417"/><filter style="color-interpolation-filters:sRGB" id="filter8437" width="1.057" height="1.099" x="-.028" y="-.049"><feGaussianBlur id="feGaussianBlur8439" stdDeviation=".46"/></filter><filter style="color-interpolation-filters:sRGB" id="filter8485" width="1.293" height="1.293" x="-.146" y="-.146"><feGaussianBlur id="feGaussianBlur8487" stdDeviation="1.386"/></filter></defs><circle style="opacity:1;fill:url(#radialGradient8379);fill-opacity:1;stroke:none;stroke-width:1.00199997;stroke-linecap:butt;stroke-linejoin:miter;stroke-miterlimit:4;stroke-dasharray:none;stroke-dashoffset:0;stroke-opacity:1" id="path8371" cx="24" cy="24" r="19.499"/><path id="path8405" d="M 23.189527,24.427621 C 16.295989,20.036435 10.04395,20.99038 5.4936455,21.992809 l -0.907366,0.161767 c -0.05709,0.607794 -0.08628,1.2237 -0.08628,1.846424 0,10.769001 8.7299995,19.499001 19.4990005,19.499001 10.769001,0 19.499001,-8.73 19.499001,-19.499001 -8.246841,0.354891 -14.678041,3.734795 -20.308474,0.426621 z" style="fill:url(#linearGradient8419);stroke:none;stroke-width:1px;stroke-linecap:butt;stroke-linejoin:miter;stroke-opacity:1;fill-opacity:1;filter:url(#filter8437)"/><circle style="opacity:1;fill:none;fill-opacity:1;stroke:#cea702;stroke-width:1.00199997;stroke-linecap:butt;stroke-linejoin:miter;stroke-miterlimit:4;stroke-dasharray:none;stroke-dashoffset:0;stroke-opacity:1" id="path8371-4" cx="24" cy="24" r="19.499"/><path style="opacity:.828;fill:#fff;fill-opacity:1;stroke:none;stroke-width:1.26146662;stroke-linecap:butt;stroke-linejoin:miter;stroke-miterlimit:4;stroke-dasharray:none;stroke-dashoffset:0;stroke-opacity:1;filter:url(#filter8485)" id="path8467" d="M 78.698904,33.161477 68.475007,24.04271 56.838519,30.860384 65.957286,20.636487 59.139612,8.9999987 69.363509,18.118766 80.999998,11.301092 71.88123,21.524989 Z" transform="matrix(0.78662081,-0.11028004,0.11028004,0.78662081,-36.478945,9.7286969)"/></svg>